<svg width="15" height="27" xmlns="http://www.w3.org/2000/svg" xmlns:xlink="http://www.w3.org/1999/xlink" overflow="hidden"><defs><clipPath id="clip0"><rect x="445" y="274" width="15" height="27"/></clipPath><clipPath id="clip1"><rect x="446" y="275" width="13" height="26"/></clipPath><clipPath id="clip2"><rect x="446" y="275" width="13" height="26"/></clipPath><clipPath id="clip3"><rect x="446" y="275" width="13" height="26"/></clipPath></defs><g clip-path="url(#clip0)" transform="translate(-445 -274)"><g clip-path="url(#clip1)"><g clip-path="url(#clip2)"><g clip-path="url(#clip3)"><path d="M-318.054 71.5494C-317.41 71.5494-316.758 71.5843-316.114 71.6128-315.694 71.6303-315.273 71.6901-314.879 71.7333L-314.909 75.6207-315.217 75.6207C-315.644 75.6207-316.071 75.6152-316.497 75.6152-316.818 75.6152-317.141 75.6152-317.458 75.629-318.488 75.663-319.245 76.0493-319.297 77.3368-319.329 78.2638-319.353 80.31-319.354 80.4176-319.301 80.4176-318.283 80.4176-317.258 80.4176-316.746 80.4176-316.246 80.4176-315.896 80.4176L-315.068 80.4176C-315.277 81.9112-315.468 83.344-315.676 84.7851L-319.355 84.7851-319.439 95.6922-323.961 95.6922-323.878 84.7685-327.576 84.7685-327.543 80.4259-323.827 80.4259-323.827 80.1004C-323.821 79.2248-323.827 78.353-323.799 77.4738-323.794 76.9161-323.747 76.3596-323.657 75.8092-323.456 74.5072-322.742 73.3396-321.676 72.5656-320.719 71.9025-319.58 71.5494-318.416 71.554-318.294 71.5494-318.173 71.5494-318.054 71.5494Z" fill="#047193" fill-rule="nonzero" fill-opacity="1" transform="matrix(1 0 0 1.07692 773.727 197.947)"/></g></g></g></g></svg>