<svg width="27" height="27" xmlns="http://www.w3.org/2000/svg" xmlns:xlink="http://www.w3.org/1999/xlink" overflow="hidden"><defs><clipPath id="clip0"><rect x="509" y="274" width="27" height="27"/></clipPath><clipPath id="clip1"><rect x="510" y="275" width="25" height="26"/></clipPath><clipPath id="clip2"><rect x="510" y="275" width="25" height="26"/></clipPath><clipPath id="clip3"><rect x="510" y="275" width="25" height="26"/></clipPath></defs><g clip-path="url(#clip0)" transform="translate(-509 -274)"><g clip-path="url(#clip1)"><g clip-path="url(#clip2)"><g clip-path="url(#clip3)"><path d="M-213.322 78.3981-213.303 78.3981C-212.481 78.4001-211.817 79.0679-211.819 79.8895-211.819 79.894-211.819 79.8984-211.819 79.9029-211.829 80.7327-212.506 81.3994-213.336 81.3982-214.16 81.393-214.825 80.7202-214.82 79.8954-214.82 79.8947-214.82 79.8941-214.82 79.8934-214.816 79.0682-214.147 78.4006-213.322 78.3981Z" fill="#047193" fill-rule="nonzero" fill-opacity="1" transform="matrix(1 0 0 1.04 742.534 197.991)"/><path d="M-207.691 80.3255C-207.5 82.293-207.384 91.5867-207.963 93.7645-208.544 96.4401-210.763 98.4495-213.484 98.7626-215.775 98.9834-218.076 99.0767-220.378 99.0406-222.7 99.1081-225.024 98.9844-227.326 98.6722-229.992 98.1277-232.003 95.9261-232.303 93.222-232.639 91.1146-232.674 81.3192-232.065 79.1909-231.446 76.5916-229.272 74.6539-226.619 74.3366-224.539 74.1085-222.447 74.0147-220.356 74.0558-218.023 74.0558-215.67 74.1186-214.253 74.1966-212.554 74.2341-210.929 74.899-209.691 76.0632-208.521 77.1886-207.809 78.7066-207.691 80.3255ZM-210.094 92.8108C-209.762 88.7262-209.711 84.6237-209.94 80.5321-210.036 78.4632-211.625 76.7724-213.684 76.5477-215.761 76.3563-217.847 76.2777-219.932 76.3126-222.421 76.3126-224.897 76.3792-225.988 76.4982-228.055 76.6214-229.738 78.2058-229.986 80.2618-230.326 84.4591-230.355 88.6759-230.071 92.8774-229.898 94.5906-228.662 96.007-226.987 96.4097-224.762 96.7276-222.513 96.8513-220.266 96.779-217.643 96.779-215.069 96.6962-214.101 96.5886-212.023 96.4725-210.331 94.8739-210.099 92.8051" fill="#047193" fill-rule="nonzero" fill-opacity="1" transform="matrix(1 0 0 1.04 742.534 197.991)"/><path d="M-219.981 80.1447C-216.473 80.143-213.628 82.9853-213.627 86.4931-213.627 86.5149-213.627 86.5365-213.627 86.5582-213.665 90.1016-216.545 92.9557-220.089 92.9612-223.593 92.9661-226.438 90.129-226.443 86.6242-226.443 86.5987-226.443 86.5732-226.443 86.5477-226.413 83.0008-223.528 80.1419-219.981 80.1447ZM-220.076 90.6929C-217.798 90.6888-215.942 88.8655-215.897 86.5886-215.849 84.3234-217.647 82.4487-219.912 82.4013-219.931 82.4009-219.951 82.4006-219.97 82.4005L-220.007 82.4005C-222.284 82.4047-224.141 84.2285-224.186 86.5058-224.23 88.7748-222.426 90.6495-220.157 90.6933-220.143 90.6936-220.128 90.6938-220.113 90.6939L-220.076 90.6939" fill="#047193" fill-rule="nonzero" fill-opacity="1" transform="matrix(1 0 0 1.04 742.534 197.991)"/></g></g></g></g></svg>