<svg width="30" height="26" xmlns="http://www.w3.org/2000/svg" xmlns:xlink="http://www.w3.org/1999/xlink" overflow="hidden"><defs><clipPath id="clip0"><rect x="684" y="278" width="30" height="26"/></clipPath><clipPath id="clip1"><rect x="685" y="279" width="29" height="24"/></clipPath><clipPath id="clip2"><rect x="685" y="279" width="29" height="24"/></clipPath><clipPath id="clip3"><rect x="685" y="279" width="29" height="24"/></clipPath></defs><g clip-path="url(#clip0)" transform="translate(-684 -278)"><g clip-path="url(#clip1)"><g clip-path="url(#clip2)"><g clip-path="url(#clip3)"><path d="M-265.342 78.5185C-265.546 78.8314-265.768 79.1315-266.008 79.4171-266.628 80.1855-267.348 80.8674-268.149 81.4444L-268.249 81.6346C-268.221 82.5026-268.264 83.3715-268.379 84.2324-268.615 86.0414-269.135 87.8018-269.92 89.449-270.729 91.151-271.811 92.7094-273.123 94.0628-275.31 96.3345-278.126 97.8997-281.211 98.5558-282.286 98.7812-283.381 98.9086-284.48 98.9361-284.657 98.9418-284.833 98.9438-285.008 98.9438-288.129 98.9561-291.188 98.0794-293.827 96.4144L-293.969 96.3269C-293.512 96.3763-293.052 96.402-292.592 96.402-291.052 96.4039-289.526 96.1063-288.099 95.5272-287.096 95.1154-286.155 94.5663-285.304 93.8945-287.795 93.8417-289.976 92.2059-290.724 89.8285-290.365 89.8987-290.001 89.9341-289.636 89.934-289.157 89.9325-288.68 89.875-288.214 89.7628L-288.126 89.7191C-289.708 89.395-291.08 88.4204-291.908 87.0338-292.483 86.0989-292.775 85.0182-292.75 83.9215-291.95 84.3577-291.058 84.5982-290.147 84.6232-291.364 83.7848-292.216 82.5156-292.531 81.0726-292.863 79.6256-292.625 78.1064-291.866 76.8306-288.905 80.485-284.532 82.7117-279.836 82.9573-279.867 82.7157-279.899 82.5189-279.931 82.3106-280.096 80.97-279.78 79.6142-279.036 78.4861-278.166 77.0544-276.705 76.0828-275.048 75.8341-274.696 75.7729-274.34 75.7412-273.982 75.739-272.455 75.7426-270.993 76.3645-269.932 77.463-269.876 77.5217-269.799 77.5559-269.717 77.5581-269.685 77.5582-269.654 77.554-269.622 77.5457-268.419 77.2953-267.264 76.8553-266.199 76.242L-266.122 76.1973C-266.54 77.5261-267.425 78.6588-268.612 79.3866-267.485 79.2626-266.383 78.97-265.342 78.5185Z" fill="#047193" fill-rule="nonzero" fill-opacity="1" transform="matrix(1 0 0 1.03448 979.157 200.645)"/></g></g></g></g></svg>