<svg width="34" height="23" xmlns="http://www.w3.org/2000/svg" xmlns:xlink="http://www.w3.org/1999/xlink" overflow="hidden"><defs><clipPath id="clip0"><rect x="578" y="278" width="34" height="23"/></clipPath><clipPath id="clip1"><rect x="579" y="279" width="32" height="22"/></clipPath><clipPath id="clip2"><rect x="579" y="279" width="32" height="22"/></clipPath><clipPath id="clip3"><rect x="579" y="279" width="32" height="22"/></clipPath></defs><g clip-path="url(#clip0)" transform="translate(-578 -278)"><g clip-path="url(#clip1)"><g clip-path="url(#clip2)"><g clip-path="url(#clip3)"><path d="M609.907 281.853C611.031 284.818 610.986 295.619 609.633 298.474 609.268 299.22 608.667 299.825 607.923 300.195 606.865 300.742 600.721 301 594.702 301 589.16 301 583.725 300.781 582.453 300.366 581.32 300.021 580.426 299.147 580.055 298.023 579.04 295.155 578.814 283.147 580.846 280.779 581.507 279.987 582.453 279.488 583.48 279.388 585.895 279.128 590.554 278.996 595.152 278.996 600.873 278.996 606.494 279.192 607.561 279.585 608.652 279.937 609.519 280.775 609.907 281.853ZM591.1 294.74C594.359 293.044 597.606 291.372 600.889 289.675 597.632 287.967 594.41 286.284 591.179 284.587 591.152 287.979 591.127 291.336 591.101 294.74" fill="#047193" fill-rule="nonzero" fill-opacity="1"/></g></g></g></g></svg>